<?xml version="1.0" encoding="UTF-8"?><svg id="Layer_1" xmlns="http://www.w3.org/2000/svg" viewBox="0 0 48 28.99"><defs><style>.cls-1{fill:#f90;}.cls-2{fill:#252f3e;}</style></defs><path class="cls-2" d="M13.53,10.53c0,.6,.06,1.08,.18,1.43,.13,.35,.29,.74,.51,1.16,.08,.13,.11,.26,.11,.37,0,.16-.1,.32-.3,.48l-1.01,.68c-.14,.1-.29,.15-.41,.15-.16,0-.32-.08-.48-.23-.22-.24-.41-.5-.57-.76-.16-.27-.32-.58-.49-.95-1.24,1.48-2.81,2.23-4.69,2.23-1.34,0-2.41-.39-3.19-1.16s-1.18-1.81-1.18-3.1c0-1.37,.48-2.48,1.45-3.32s2.27-1.26,3.91-1.26c.54,0,1.1,.05,1.69,.13s1.2,.21,1.84,.35v-1.18c0-1.23-.26-2.08-.75-2.58-.51-.5-1.37-.74-2.6-.74-.56,0-1.13,.06-1.72,.21-.59,.15-1.16,.32-1.72,.55-.26,.11-.45,.18-.56,.21-.11,.03-.19,.05-.26,.05-.22,0-.34-.16-.34-.5v-.79c0-.26,.03-.45,.11-.56s.22-.23,.45-.34c.56-.29,1.23-.53,2.01-.73C6.28,.13,7.11,.03,7.99,.03c1.9,0,3.29,.44,4.18,1.31,.88,.87,1.32,2.19,1.32,3.97v5.22h.03Zm-6.48,2.45c.53,0,1.07-.1,1.64-.29,.57-.19,1.09-.55,1.52-1.03,.26-.31,.45-.65,.54-1.03,.1-.39,.16-.85,.16-1.4v-.68c-.46-.11-.96-.21-1.47-.27-.51-.06-1.01-.1-1.5-.1-1.07,0-1.85,.21-2.38,.65s-.78,1.05-.78,1.85c0,.76,.19,1.32,.59,1.71,.38,.4,.94,.6,1.68,.6Zm12.82,1.74c-.29,0-.48-.05-.61-.16-.13-.1-.24-.32-.33-.63L15.17,1.47c-.1-.32-.14-.53-.14-.64,0-.26,.13-.4,.38-.4h1.56c.3,0,.51,.05,.62,.16,.13,.1,.22,.32,.32,.63l2.68,10.67L23.09,1.21c.08-.32,.18-.53,.3-.63,.13-.1,.35-.16,.64-.16h1.28c.3,0,.51,.05,.64,.16,.13,.1,.24,.32,.3,.63l2.52,10.8L31.53,1.21c.1-.32,.21-.53,.32-.63,.13-.1,.33-.16,.62-.16h1.49c.26,0,.4,.13,.4,.4,0,.08-.02,.16-.03,.26s-.05,.23-.11,.4l-3.85,12.46c-.1,.32-.21,.53-.33,.63s-.33,.16-.61,.16h-1.37c-.3,0-.51-.05-.64-.16-.13-.11-.24-.32-.3-.65l-2.47-10.4-2.46,10.38c-.08,.32-.18,.53-.3,.65-.13,.11-.35,.16-.64,.16h-1.37Zm20.51,.43c-.83,0-1.66-.1-2.46-.29s-1.42-.4-1.84-.65c-.26-.15-.43-.31-.49-.45s-.1-.31-.1-.45v-.82c0-.34,.13-.5,.37-.5,.1,0,.19,.02,.29,.05,.1,.03,.24,.1,.4,.16,.54,.24,1.13,.43,1.76,.56,.64,.13,1.26,.19,1.9,.19,1.01,0,1.79-.18,2.33-.53,.54-.35,.83-.87,.83-1.53,0-.45-.14-.82-.43-1.13-.29-.31-.83-.58-1.61-.84l-2.31-.73c-1.17-.37-2.03-.92-2.55-1.65-.53-.71-.8-1.5-.8-2.34,0-.68,.14-1.27,.43-1.79s.67-.97,1.15-1.32c.48-.37,1.02-.65,1.66-.84,.64-.19,1.31-.27,2.01-.27,.35,0,.72,.02,1.07,.06,.37,.05,.7,.11,1.04,.18,.32,.08,.62,.16,.91,.26s.51,.19,.67,.29c.22,.13,.38,.26,.48,.4,.1,.13,.14,.31,.14,.53v.76c0,.34-.13,.52-.37,.52-.13,0-.33-.06-.61-.19-.91-.42-1.93-.63-3.06-.63-.91,0-1.63,.15-2.12,.45-.49,.31-.75,.77-.75,1.43,0,.45,.16,.84,.48,1.15,.32,.31,.91,.61,1.76,.89l2.27,.73c1.15,.37,1.98,.89,2.47,1.55s.73,1.42,.73,2.26c0,.69-.14,1.32-.42,1.87-.29,.55-.67,1.03-1.17,1.42-.49,.4-1.09,.69-1.77,.9-.72,.23-1.47,.34-2.28,.34Z"/><path class="cls-1" d="M43.4,22.99c-5.25,3.92-12.88,6-19.44,6C14.76,28.99,6.47,25.56,.21,19.85c-.5-.45-.05-1.06,.54-.71,6.77,3.97,15.12,6.37,23.75,6.37,5.83,0,12.23-1.22,18.12-3.74,.88-.4,1.63,.58,.77,1.22Zm2.19-2.52c-.67-.87-4.44-.42-6.15-.21-.51,.06-.59-.39-.13-.73,3-2.13,7.93-1.52,8.51-.81,.58,.73-.16,5.71-2.97,8.09-.43,.37-.85,.18-.65-.31,.64-1.6,2.06-5.19,1.39-6.05Z"/></svg>