<?xml version="1.0" encoding="UTF-8"?><svg id="Layer_1" xmlns="http://www.w3.org/2000/svg" viewBox="0 0 47.99 33.77"><defs><style>.cls-1{fill:#0288d1;}.cls-2{fill:#03a9f4;}.cls-3{fill:#01579b;}.cls-4{fill:#fff;}.cls-5{fill:#37474f;}.cls-6{fill:#81d4fa;}</style></defs><path class="cls-2" d="M41.45,11.98c.43-1.89-.1-4.12-2.72-6.54-4.26,3.86-3.04,7.87-1.63,9.8,0,0-.18,1.09-4.36,1.09H.06s-2,17.43,17.43,17.43c16.98,0,21.76-13.07,22.69-16.42,.39,.05,.82,.09,1.28,.08,2.34-.02,5.37-1.28,6.54-5.97-3.09-1.07-5.08-.59-6.54,.53Z"/><path class="cls-1" d="M.24,20.7c.8,5.16,4.16,13.07,17.25,13.07s19.09-7.98,21.44-13.07H.24Z"/><path class="cls-6" d="M19.46,33.7c-1-.35-5.52-1.19-6.33-7.56-4.58,2.03-8.65,1.5-10.43,1.1,2.35,3.52,6.72,6.53,14.79,6.53,.68,0,1.33-.03,1.97-.07Z"/><path class="cls-4" d="M17.49,22.87c-1.2,0-2.18,.98-2.18,2.18s.98,2.18,2.18,2.18,2.18-.98,2.18-2.18-.98-2.18-2.18-2.18Z"/><path class="cls-5" d="M14.12,26.79c.24,.55,.02,1.27-.56,1.44-3.6,1.06-6.69,1.2-9.04,1.2-.7-.67-1.3-1.39-1.8-2.14,2.82,0,7.31-.13,9.96-1.05,.57-.2,1.19,0,1.44,.55ZM.06,19.61s2.04,.14,3.27-1.09c2.04,1.84,6.47,1.19,7.62,0,1.16,1.84,7.56,1.5,8.71,0,1.36,1.57,7.22,1.91,8.71,0,.52,1.59,7.43,2.04,8.71,0,1.16,1.19,5.51,2.11,7.96,0,.61,1.29,2.93,1.09,2.93,1.09v1.09H.06m16.34,4.36c0,.6,.49,1.09,1.09,1.09s1.09-.49,1.09-1.09-.49-1.09-1.09-1.09-1.09,.49-1.09,1.09Z"/><path class="cls-3" d="M9.86,16.34H4.42v-5.45h5.45v5.45Zm10.89-5.45h-5.45v5.45h5.45v-5.45Zm10.89,0h-5.45v5.45h5.45v-5.45ZM15.31,5.45h-5.45v5.45h5.45V5.45Zm10.89,0h-5.45v5.45h5.45V5.45Z"/><path class="cls-1" d="M15.31,16.34h-5.45v-5.45h5.45v5.45Zm10.89-5.45h-5.45v5.45h5.45v-5.45Zm0-10.89h-5.45V5.45h5.45V0Zm-5.45,5.45h-5.45v5.45h5.45V5.45Z"/></svg>