<?xml version="1.0" encoding="UTF-8"?><svg id="Layer_1" xmlns="http://www.w3.org/2000/svg" viewBox="0 0 64.01 62.1"><defs><style>.cls-1{fill:#fff;stroke:#fff;stroke-miterlimit:8;stroke-width:.11px;}.cls-2{fill:#326ce5;}</style></defs><path class="cls-2" d="M31.8,0c-.57,.03-1.13,.18-1.65,.44L7.86,11.07c-1.16,.55-2.01,1.61-2.3,2.86L.11,37.8c-.26,1.12-.05,2.29,.6,3.25,.08,.12,.16,.23,.24,.34l15.4,19.15c.81,1,2.04,1.57,3.32,1.57h24.7c1.29,0,2.52-.6,3.33-1.59l15.39-19.15c.81-1,1.11-2.32,.8-3.57l-5.49-23.88c-.29-1.26-1.14-2.31-2.3-2.86L33.85,.44c-.64-.32-1.35-.47-2.07-.44h.02Z"/><path class="cls-1" d="M32,8.14c-.77,.05-1.35,.71-1.31,1.48v.38c.04,.43,.1,.85,.18,1.27,.12,.8,.17,1.61,.13,2.42-.08,.27-.23,.51-.44,.69l-.03,.56c-.81,.07-1.61,.19-2.41,.37-3.33,.75-6.37,2.48-8.71,4.97l-.48-.34c-.26,.08-.55,.05-.79-.08-.65-.48-1.25-1.02-1.79-1.62-.27-.33-.57-.64-.87-.93l-.3-.24c-.26-.21-.59-.33-.93-.35-.41-.02-.8,.15-1.06,.47-.45,.63-.3,1.51,.33,1.97l.28,.22c.36,.24,.72,.45,1.1,.65,.71,.39,1.38,.86,2,1.4,.16,.23,.25,.49,.27,.77l.44,.4c-2.35,3.53-3.32,7.81-2.72,12.01l-.56,.16c-.15,.23-.34,.43-.57,.58-.78,.21-1.58,.34-2.39,.39-.43,0-.86,.04-1.28,.1l-.35,.08h-.04c-.73,.1-1.24,.78-1.14,1.51,.04,.28,.17,.55,.37,.75,.36,.36,.89,.49,1.37,.33h.03l.36-.04c.41-.12,.81-.27,1.2-.44,.75-.3,1.53-.53,2.32-.68,.28,.02,.54,.11,.76,.27l.6-.1c1.3,4.03,4.03,7.45,7.68,9.61l-.24,.51c.11,.23,.15,.49,.12,.75-.33,.76-.73,1.5-1.21,2.18-.26,.34-.5,.7-.72,1.07l-.17,.36c-.37,.64-.15,1.46,.49,1.83,.24,.14,.53,.2,.81,.17,.5-.06,.93-.39,1.11-.86l.17-.34c.15-.4,.28-.81,.38-1.22,.35-.87,.55-1.81,1.03-2.39,.16-.15,.36-.25,.57-.28l.3-.55c3.95,1.52,8.33,1.53,12.29,.03l.27,.51c.27,.04,.52,.19,.68,.41,.38,.72,.68,1.47,.91,2.24,.11,.41,.24,.82,.39,1.22l.17,.34c.26,.69,1.03,1.04,1.73,.78,.27-.1,.49-.28,.65-.52,.27-.42,.29-.97,.03-1.4l-.17-.36c-.22-.37-.46-.72-.72-1.06-.46-.66-.86-1.37-1.2-2.11-.06-.27-.02-.56,.14-.8-.09-.17-.16-.35-.22-.54,3.64-2.17,6.36-5.6,7.65-9.64l.57,.1c.2-.19,.47-.28,.75-.28,.79,.15,1.57,.4,2.32,.68,.39,.18,.79,.33,1.2,.46,.1,.03,.24,.05,.34,.07h.03c.7,.23,1.46-.16,1.69-.86,.09-.27,.09-.57,0-.84-.16-.48-.59-.82-1.09-.89l-.39-.09c-.42-.06-.85-.09-1.28-.1-.81-.05-1.61-.18-2.39-.39-.24-.13-.44-.33-.58-.58l-.54-.16c.58-4.2-.41-8.47-2.77-11.99l.47-.44c-.02-.27,.07-.55,.25-.76,.61-.53,1.28-.99,1.98-1.39,.38-.19,.75-.41,1.1-.65l.29-.24c.63-.39,.82-1.22,.43-1.85-.16-.26-.41-.46-.7-.56-.49-.17-1.03-.04-1.39,.32l-.3,.24c-.31,.29-.6,.6-.87,.93-.53,.6-1.11,1.15-1.75,1.65-.26,.1-.54,.13-.81,.09l-.51,.36c-2.92-3.06-6.85-4.96-11.07-5.34,0-.2-.03-.5-.03-.59-.23-.16-.38-.39-.44-.66-.03-.81,.02-1.62,.15-2.41,.09-.42,.15-.84,.18-1.27v-.4c.04-.77-.54-1.43-1.31-1.48h-.02Zm-1.67,10.32l-.4,6.99h-.03c-.02,.43-.27,.8-.66,1.01s-.85,.15-1.2-.11l-5.73-4.06c1.82-1.79,4.11-3.04,6.61-3.6,.47-.1,.94-.18,1.41-.23h0Zm3.34,0c3.01,.37,5.81,1.73,7.98,3.85l-5.68,4.03c-.35,.28-.83,.34-1.24,.14s-.67-.6-.67-1.05l-.4-6.98Zm-13.44,6.45l5.24,4.68v.03c.33,.28,.47,.73,.37,1.15s-.42,.76-.83,.87v.02l-6.72,1.93c-.33-3.03,.35-6.08,1.95-8.68h0Zm23.51,0c1.59,2.59,2.3,5.63,2,8.65l-6.73-1.94v-.03c-.42-.11-.74-.45-.83-.87s.05-.86,.37-1.15l5.2-4.65v-.02Zm-12.82,5.04h2.14l1.31,1.66-.48,2.08-1.93,.93-1.93-.93-.45-2.08,1.33-1.66Zm6.87,5.68c.09,0,.2,0,.27,0l6.93,1.17c-1,2.88-2.97,5.34-5.55,6.99l-2.68-6.49c-.25-.6,.03-1.29,.63-1.55,.12-.05,.26-.08,.39-.09v-.03Zm-11.64,.03c.39,0,.75,.21,.97,.54s.25,.74,.09,1.1v.03l-2.66,6.44c-2.55-1.63-4.49-4.06-5.52-6.91l6.87-1.17c.08,0,.15,0,.23,0v-.02Zm5.82,2.8c.45-.01,.86,.22,1.07,.62h.03l3.39,6.11-1.35,.4c-2.49,.57-5.09,.44-7.52-.39l3.4-6.11c.21-.36,.59-.58,1-.59l-.02-.04Z"/></svg>