<?xml version="1.0" encoding="UTF-8"?><svg id="Layer_1" xmlns="http://www.w3.org/2000/svg" viewBox="0 0 60 57.19"><defs><style>.cls-1{fill:#775da7;}</style></defs><path class="cls-1" d="M28.57,0C19.11,0,11.41,10.4,11.41,23.17c0,6.91,2.26,13.11,5.83,17.35-.07,.3-.11,.62-.11,.94,0,2.37,1.92,4.29,4.29,4.29s4.29-1.92,4.29-4.29-1.92-4.29-4.29-4.29c-.45,0-.88,.09-1.28,.22-2.71-3.46-4.44-8.55-4.44-14.22,0-10.41,5.77-18.88,12.87-18.88,5.49,0,10.17,5.07,12.02,12.18,1.6,.49,3.2,1.12,4.76,1.87C43.7,7.88,36.8,0,28.57,0Z"/><path class="cls-1" d="M46.45,23c-5.64-3.42-11.97-4.92-17.42-4.23-.79-.97-1.98-1.61-3.32-1.61-2.37,0-4.29,1.92-4.29,4.29s1.92,4.29,4.29,4.29c1.82,0,3.36-1.14,3.99-2.73,4.46-.54,9.74,.76,14.53,3.66,9.16,5.55,13.83,15.11,10.41,21.32-1.18,2.15-3.27,3.68-6.03,4.42-3.27,.87-7.16,.56-11.05-.76-1.2,1.1-2.5,2.14-3.9,3.1,3.65,1.6,7.43,2.44,10.97,2.44,1.77,0,3.49-.21,5.09-.64,3.92-1.05,6.92-3.29,8.68-6.49,4.51-8.2-.85-20.33-11.95-27.06Z"/><path class="cls-1" d="M45.73,35.74c0-2.36-1.92-4.28-4.29-4.28s-4.29,1.92-4.29,4.28c0,.96,.33,1.83,.86,2.54-1.83,4.01-5.35,7.96-10.1,10.84-5.53,3.35-11.7,4.58-16.52,3.29-2.76-.74-4.85-2.27-6.03-4.42-2.43-4.42-.75-10.55,3.73-15.71-.46-1.64-.8-3.35-1.01-5.11C.83,34.03-2.09,43.36,1.6,50.06c1.76,3.2,4.76,5.45,8.68,6.49,1.6,.43,3.31,.64,5.09,.64,4.78,0,10.02-1.53,14.77-4.4,5.49-3.32,9.56-7.97,11.74-12.82,2.16-.22,3.86-2.02,3.86-4.24Z"/></svg>